<svg width="70" height="70" viewBox="0 0 70 70" fill="none" xmlns="http://www.w3.org/2000/svg">
<rect width="70" height="70"/>
<path fill-rule="evenodd" clip-rule="evenodd" d="M57.9423 23.7192L63.6774 35.461H50.2889V20.112H52.166C54.6226 20.112 56.8644 21.5119 57.9423 23.7192ZM39.9651 15.7143C41.9655 15.7143 43.7526 16.6281 44.9316 18.0609V38.1396C44.9316 39.6189 46.1309 40.8182 47.6102 40.8182H64.1274V49.7386C64.1274 53.2893 61.2492 56.1672 57.6989 56.1672H56.9849C56.9879 56.2537 56.9892 56.3403 56.9892 56.4273C56.9892 60.9149 53.351 64.553 48.8634 64.553C44.5572 64.553 41.0334 61.2029 40.7556 56.9669H29.8133C29.5356 61.2029 26.0117 64.553 21.7053 64.553C17.3991 64.553 13.8751 61.2029 13.5975 56.9669H12.2949C8.74454 56.9669 5.86636 54.0886 5.86636 50.5383V22.1429C5.86636 18.5925 8.74453 15.7143 12.2949 15.7143H39.9651ZM26.1314 25.3572C27.6108 25.3572 28.81 26.5564 28.81 28.0357V32.3214H33.0957C34.575 32.3214 35.7743 33.5207 35.7743 35C35.7743 36.4794 34.575 37.6786 33.0957 37.6786H28.81V41.9643C28.81 43.4436 27.6108 44.6429 26.1314 44.6429C24.6521 44.6429 23.4528 43.4436 23.4528 41.9643V37.6786H19.1671C17.6878 37.6786 16.4886 36.4794 16.4886 35C16.4886 33.5207 17.6878 32.3214 19.1671 32.3214H23.4528V28.0357C23.4528 26.5564 24.6521 25.3572 26.1314 25.3572Z" fill="#A1C938"/>
<path fill-rule="evenodd" clip-rule="evenodd" d="M57.9423 23.7192L63.6774 35.461H50.2889V20.112H52.166C54.6226 20.112 56.8644 21.5119 57.9423 23.7192ZM39.9651 15.7143C41.9655 15.7143 43.7526 16.6281 44.9316 18.0609V38.1396C44.9316 39.6189 46.1309 40.8182 47.6102 40.8182H64.1274V49.7386C64.1274 53.2893 61.2492 56.1672 57.6989 56.1672H56.9849C56.9879 56.2537 56.9892 56.3403 56.9892 56.4273C56.9892 60.9149 53.351 64.553 48.8634 64.553C44.5572 64.553 41.0334 61.2029 40.7556 56.9669H29.8133C29.5356 61.2029 26.0117 64.553 21.7053 64.553C17.3991 64.553 13.8751 61.2029 13.5975 56.9669H12.2949C8.74454 56.9669 5.86636 54.0886 5.86636 50.5383V22.1429C5.86636 18.5925 8.74453 15.7143 12.2949 15.7143H39.9651ZM26.1314 25.3572C27.6108 25.3572 28.81 26.5564 28.81 28.0357V32.3214H33.0957C34.575 32.3214 35.7743 33.5207 35.7743 35C35.7743 36.4794 34.575 37.6786 33.0957 37.6786H28.81V41.9643C28.81 43.4436 27.6108 44.6429 26.1314 44.6429C24.6521 44.6429 23.4528 43.4436 23.4528 41.9643V37.6786H19.1671C17.6878 37.6786 16.4886 36.4794 16.4886 35C16.4886 33.5207 17.6878 32.3214 19.1671 32.3214H23.4528V28.0357C23.4528 26.5564 24.6521 25.3572 26.1314 25.3572Z" fill="#A1C938"/>
</svg>
