<svg width="70" height="70" viewBox="0 0 70 70" fill="none" xmlns="http://www.w3.org/2000/svg">
<rect width="70" height="70"/>
<path fill-rule="evenodd" clip-rule="evenodd" d="M45.1541 6.25526C46.8277 4.58158 49.5413 4.58158 51.2148 6.25526L62.8844 17.9249C64.5584 19.5985 64.5584 22.3121 62.8844 23.9858C61.2108 25.6595 58.4975 25.6595 56.8235 23.9858L54.0194 21.1814L48.4107 26.7902L58.9947 37.3743C60.6683 39.048 60.6683 41.7615 58.9947 43.4352C57.3211 45.1089 54.6074 45.1089 52.9338 43.4352L48.6443 39.1458L34.1941 53.8857L34.18 53.8998C33.2585 54.8225 32.1641 55.5545 30.9595 56.0538C29.7549 56.5531 28.4637 56.8103 27.1597 56.8103C25.8557 56.8103 24.5645 56.5531 23.3599 56.0538C22.409 55.6595 21.5267 55.1204 20.7439 54.457L12.3162 62.8844C10.6425 64.5584 7.92893 64.5584 6.25526 62.8844C4.58158 61.2108 4.58158 58.4975 6.25526 56.8235L14.683 48.3961C14.0195 47.6131 13.4803 46.7309 13.0861 45.7799C12.5867 44.5753 12.3297 43.2841 12.3297 41.9801C12.3297 40.6762 12.5867 39.385 13.0861 38.1804C13.5854 36.9758 14.3173 35.8814 15.2399 34.9599L15.2541 34.9457L29.9941 20.4955L25.7046 16.2061C24.0309 14.5324 24.0309 11.8188 25.7046 10.1451C27.3783 8.47145 30.0918 8.47145 31.7655 10.1451L42.3496 20.7293L47.9585 15.1205L45.1541 12.3162C43.4804 10.6425 43.4804 7.92893 45.1541 6.25526Z" fill="#E8C71D"/>
</svg>
