<?xml version="1.0" encoding="UTF-8" standalone="no"?>
<!DOCTYPE svg PUBLIC "-//W3C//DTD SVG 1.1//EN" "http://www.w3.org/Graphics/SVG/1.1/DTD/svg11.dtd">
<svg width="100%" height="100%" viewBox="0 0 1182 1182" version="1.1" xmlns="http://www.w3.org/2000/svg" xmlns:xlink="http://www.w3.org/1999/xlink" xml:space="preserve" xmlns:serif="http://www.serif.com/" style="fill-rule:evenodd;clip-rule:evenodd;stroke-linecap:round;stroke-linejoin:round;stroke-miterlimit:1.5;">
    <g id="Body" transform="matrix(1.2958,0,0,1.2958,-74.2157,-136.961)">
        <path d="M330.332,971.249C212.307,969.315 170.055,889.119 170.055,815.275C170.055,639.162 315.354,467.703 489.148,496.181C592.861,513.176 688.255,509.147 791.192,632.948C796.907,639.822 827.471,659.676 882.081,629.539C929.494,603.374 931.712,600.903 931.758,601.349C939.393,674.985 985.501,962.337 740.922,967.239C740.922,967.239 354.332,971.643 330.332,971.249Z" style="fill:rgb(190,162,0);"/>
        <path d="M330.332,971.249C163.72,969.099 170.055,815.275 170.055,815.275C170.055,815.275 160.618,967.682 549.55,955.942C936.614,944.257 891.416,817.446 916.503,718.978C918.411,711.487 842.673,760.734 843.597,759.922C889.605,719.512 931.724,601.278 931.724,601.278C931.724,601.278 943.155,673.074 939.332,759.396C934.236,874.454 889.583,964.04 740.922,967.239C740.922,967.239 354.334,971.559 330.332,971.249Z" style="fill:rgb(148,125,0);"/>
        <g transform="matrix(-0.490933,1.38808,1.91285,0.676532,-884.923,-300.29)">
            <path d="M296.771,935.014C301.171,932.214 305.571,928.514 309.971,923.914C314.371,919.314 318.371,914.314 321.971,908.914C325.571,903.514 328.571,897.914 330.971,892.114C333.371,886.314 334.571,880.814 334.571,875.614C334.571,870.014 333.971,865.014 332.771,860.614C331.571,856.214 330.371,852.014 329.171,848.014C327.971,844.014 326.771,840.214 325.571,836.614C324.371,833.014 323.771,829.214 323.771,825.214C323.771,816.414 326.771,809.414 332.771,804.214C338.771,799.014 345.771,796.414 353.771,796.414C364.171,796.414 371.571,799.814 375.971,806.614C380.371,813.414 382.571,823.214 382.571,836.014C382.571,848.814 380.271,860.314 375.671,870.514C371.071,880.714 364.971,890.014 357.371,898.414C349.771,906.814 341.271,914.514 331.871,921.514C322.471,928.514 312.971,935.214 303.371,941.614L296.771,935.014Z" style="fill:rgb(148,126,0);fill-rule:nonzero;"/>
        </g>
    </g>
    <g id="Head" transform="matrix(1.2958,0,0,1.2958,-74.2157,-95.4957)">
        <g id="Face">
            <g transform="matrix(0.771723,0,0,0.771723,57.274,73.6962)">
                <path d="M731.81,382.708C719.883,534.949 592.404,654.943 437.12,654.943C300.875,654.943 186.036,562.57 151.861,437.067L152.175,438.215L731.783,383.06L731.81,382.708ZM151.534,435.857L151.225,434.695C151.429,435.469 151.636,436.243 151.847,437.016L151.534,435.857ZM150.925,433.545L151.21,434.637L151.06,434.064L150.925,433.545ZM150.607,432.305L150.317,431.157C150.509,431.925 150.704,432.691 150.902,433.456L150.607,432.305ZM150.032,430.003L150.291,431.049L150.159,430.519L150.032,430.003ZM149.723,428.736L149.452,427.6C149.632,428.361 149.815,429.121 150.002,429.881L149.723,428.736ZM149.18,426.443L149.416,427.449L149.3,426.957L149.18,426.443ZM148.883,425.15L148.629,424.025C148.798,424.78 148.97,425.537 149.145,426.292L148.883,425.15ZM148.372,422.863L148.587,423.838L148.485,423.379L148.372,422.863ZM148.086,421.547L147.849,420.432C148.008,421.186 148.169,421.938 148.334,422.689L148.086,421.547ZM147.606,419.265L147.804,420.214L147.714,419.784L147.606,419.265ZM147.334,417.929L147.113,416.822C147.261,417.573 147.412,418.322 147.566,419.071L147.334,417.929ZM146.884,415.649L147.065,416.578L146.986,416.174L146.884,415.649ZM146.627,414.301C146.698,414.68 146.771,415.06 146.844,415.439L146.627,414.301ZM146.421,413.195L146.62,414.264L146.469,413.456L146.421,413.195ZM146.206,412.015L146.372,412.928L146.302,412.547L146.206,412.015ZM145.965,410.662C146.031,411.04 146.098,411.417 146.166,411.793L145.965,410.662ZM145.773,409.552L145.949,410.57L145.818,409.818L145.773,409.552ZM145.572,408.363L145.724,409.266L145.662,408.906L145.572,408.363ZM145.348,407.007C145.409,407.381 145.47,407.757 145.533,408.133L145.348,407.007ZM145.169,405.892L145.326,406.869L145.212,406.165L145.169,405.892ZM144.982,404.694L145.122,405.591L145.068,405.249L144.982,404.694ZM144.775,403.336C144.832,403.711 144.888,404.085 144.946,404.459L144.775,403.336ZM144.61,402.216L144.75,403.162L144.651,402.497L144.61,402.216ZM144.437,401.008L144.565,401.903L144.518,401.577L144.437,401.008ZM144.248,399.65C144.299,400.024 144.351,400.397 144.404,400.771L144.248,399.65ZM144.097,398.524L144.22,399.445L144.135,398.814L144.097,398.524ZM143.938,397.305L144.054,398.202L144.013,397.891L143.938,397.305ZM143.766,395.949C143.813,396.322 143.86,396.696 143.907,397.069L143.766,395.949ZM143.629,394.818L143.738,395.719L143.665,395.117L143.629,394.818ZM143.484,393.585L143.589,394.487L143.554,394.191L143.484,393.585ZM143.331,392.233C143.372,392.608 143.414,392.981 143.457,393.354L143.331,392.233ZM143.207,391.096L143.303,391.982L143.24,391.407L143.207,391.096ZM143.076,389.849L143.171,390.76L143.141,390.477L143.076,389.849ZM142.941,388.503C142.977,388.877 143.015,389.251 143.053,389.625L142.941,388.503ZM142.831,387.36L142.915,388.235L142.861,387.682L142.831,387.36ZM142.715,386.095L142.799,387.02L142.774,386.749L142.715,386.095ZM142.597,384.759C142.629,385.134 142.662,385.509 142.695,385.883L142.597,384.759ZM142.502,383.61L142.574,384.476L142.529,383.944L142.502,383.61ZM142.4,382.326L142.474,383.267L142.453,383.008L142.4,382.326ZM731.86,382.07L731.847,382.235L731.881,381.789L731.86,382.07ZM142.301,381.001C142.328,381.378 142.356,381.753 142.385,382.129L142.301,381.001ZM731.93,381.132L731.909,381.412L731.944,380.935L731.93,381.132ZM142.219,379.846L142.28,380.707L142.243,380.193L142.219,379.846ZM732.088,378.843L732.052,379.382C732.036,379.627 732.019,379.873 732.002,380.118L731.967,380.609C732.01,380.014 732.05,379.429 732.088,378.843ZM142.132,378.54L142.196,379.501L142.179,379.253L142.132,378.54ZM732.122,378.313L732.106,378.555L732.14,378.029L732.122,378.313ZM142.051,377.231C142.073,377.608 142.097,377.985 142.121,378.361L142.051,377.231ZM732.181,377.371L732.158,377.733L732.191,377.2L732.181,377.371ZM732.236,376.429L732.204,376.97L732.236,376.431L732.264,375.923L732.236,376.429ZM141.984,376.069L142.033,376.925L142.004,376.429L141.984,376.069ZM141.912,374.736L141.965,375.723L141.952,375.486L141.912,374.736ZM732.288,375.486L732.279,375.654L732.306,375.149L732.288,375.486ZM732.338,374.542L732.324,374.81L732.348,374.322L732.338,374.542ZM141.849,373.447C141.867,373.825 141.885,374.203 141.904,374.581L141.849,373.447ZM732.384,373.598L732.366,373.961L732.389,373.487L732.384,373.598ZM141.796,372.278L141.834,373.133L141.812,372.653L141.796,372.278ZM732.428,372.653L732.417,372.891L732.424,372.735L732.442,372.314L732.428,372.653ZM141.741,370.916L141.782,371.933L141.772,371.707L141.741,370.916ZM732.468,371.707L732.46,371.884L732.478,371.46L732.468,371.707ZM732.506,370.76L732.495,371.016L732.511,370.612L732.506,370.76ZM141.694,369.65C141.707,370.03 141.721,370.409 141.735,370.789L141.694,369.65ZM732.54,369.812L732.53,370.079L732.542,369.77L732.543,369.722L732.54,369.812ZM141.656,368.475L141.684,369.328L141.668,368.864L141.656,368.475ZM732.572,368.864L732.569,368.961L732.579,368.623L732.572,368.864ZM141.617,367.077L141.646,368.131L141.64,367.915L141.617,367.077ZM732.6,367.915L732.595,368.091L732.605,367.741L732.6,367.915ZM732.626,366.965L732.62,367.185L732.628,366.88L732.626,366.965ZM141.588,365.842C141.596,366.223 141.605,366.604 141.615,366.984L141.588,365.842ZM732.649,366.015L732.648,366.041L732.652,365.868L732.649,366.015ZM141.565,364.659L141.581,365.513L141.572,365.063L141.565,364.659ZM732.668,365.063L732.666,365.174L732.671,364.875L732.668,365.063ZM141.542,363.219L141.559,364.317L141.555,364.111L141.542,363.219ZM732.685,364.111L732.682,364.287L732.687,363.988L732.685,364.111ZM732.698,363.158L732.696,363.316L732.699,363.12L732.698,363.158ZM141.53,362.021C141.533,362.402 141.537,362.785 141.542,363.168L141.53,362.021ZM732.709,362.205L732.708,362.259L732.71,362.033L732.709,362.205ZM141.521,360.83L141.527,361.686L141.523,361.251L141.521,360.83ZM732.716,361.251L732.715,361.384L732.717,361.092L732.716,361.251ZM141.52,360.491L141.519,360.296L141.517,359.34L141.52,360.491ZM732.721,360.296L732.72,360.476L732.721,360.209L732.721,360.296ZM732.721,358.385L732.723,359.34L732.72,358.257L732.721,358.385ZM141.52,358.226L141.519,358.481L141.519,358.385L141.52,358.226ZM732.716,357.43L732.719,357.916L732.714,357.164L732.716,357.43ZM141.524,357.336L141.523,357.589L141.523,357.43L141.524,357.336ZM732.709,356.476L732.711,356.778L732.704,356.042L732.709,356.476ZM141.531,356.463L141.531,356.478L141.531,356.463ZM732.698,355.522L732.7,355.682L732.688,354.772L732.698,355.522ZM141.544,355.365L141.54,355.619L141.542,355.522L141.544,355.365ZM141.557,354.478L141.553,354.728L141.555,354.57L141.557,354.478ZM732.666,353.522L732.685,354.6C732.679,354.241 732.673,353.882 732.666,353.522ZM141.572,353.596L141.572,353.621L141.572,353.596ZM732.649,352.666L732.66,353.212L732.643,352.437L732.649,352.666ZM141.595,352.512L141.589,352.764L141.591,352.666L141.595,352.512ZM732.626,351.716L732.634,352.055L732.616,351.331L732.626,351.716ZM141.616,351.627L141.61,351.872L141.614,351.716L141.616,351.627ZM732.6,350.766L732.605,350.957L732.581,350.137L732.6,350.766ZM141.64,350.741L141.639,350.77L141.64,350.741ZM141.673,349.667L141.665,349.914L141.668,349.817L141.673,349.667ZM732.538,348.806L732.574,349.877C732.562,349.52 732.55,349.163 732.538,348.806ZM141.703,348.784L141.695,349.02L141.7,348.869L141.703,348.784ZM732.506,347.921L732.528,348.539L732.498,347.728L732.506,347.921ZM141.735,347.898L141.734,347.925L141.735,347.898ZM732.468,346.974L732.483,347.352L732.454,346.635L732.468,346.974ZM141.778,346.831L141.768,347.069L141.772,346.974L141.778,346.831ZM732.428,346.028L732.437,346.251L732.403,345.486L732.428,346.028ZM141.816,345.95L141.806,346.173L141.812,346.028L141.816,345.95ZM732.336,344.108L732.388,345.172C732.371,344.817 732.354,344.463 732.336,344.108ZM141.857,345.07L141.856,345.085L141.857,345.07ZM141.909,344.004L141.898,344.229L141.902,344.138L141.909,344.004ZM732.288,343.195L732.326,343.908L732.28,343.038L732.288,343.195ZM141.956,343.124L141.945,343.328L141.952,343.195L141.956,343.124ZM732.236,342.252L732.259,342.667L732.219,341.957L732.236,342.252ZM732.181,341.309L732.195,341.561L732.151,340.84L732.181,341.309ZM142.067,341.187L142.054,341.393L142.059,341.309L142.067,341.187ZM142.122,340.307L142.11,340.487L142.118,340.368L142.122,340.307ZM732.122,340.368L732.129,340.485L732.063,339.458L732.122,340.368ZM731.997,338.488L732.056,339.35L731.988,338.368L731.997,338.488ZM142.251,338.381L142.238,338.563L142.243,338.488L142.251,338.381ZM731.93,337.549L731.962,338L731.911,337.298L731.93,337.549ZM142.314,337.499L142.303,337.648L142.31,337.549L142.314,337.499ZM731.86,336.611L731.881,336.889L731.828,336.205L731.86,336.611ZM731.787,335.673L731.798,335.815L731.732,334.99L731.787,335.673ZM142.46,335.585L142.448,335.737L142.453,335.673L142.46,335.585ZM142.532,334.7L142.523,334.811L142.529,334.737L142.532,334.7ZM731.625,333.719L731.712,334.753C731.684,334.408 731.655,334.063 731.625,333.719ZM731.551,332.866L731.593,333.351L731.532,332.659L731.551,332.866ZM142.695,332.799L142.685,332.916L142.689,332.866L142.695,332.799ZM731.466,331.932L731.494,332.234L731.434,331.585L731.466,331.932ZM142.776,331.91L142.77,331.977L142.774,331.932L142.776,331.91ZM731.379,330.999L731.394,331.162L731.326,330.451L731.379,330.999ZM731.191,329.091L731.292,330.104C731.259,329.767 731.225,329.429 731.191,329.091ZM142.956,330.023L142.948,330.099L142.951,330.066L142.956,330.023ZM143.045,329.13L143.044,329.145L143.045,329.13ZM731.099,328.204L731.152,328.718L731.082,328.041L731.099,328.204ZM731,327.274L731.034,327.594L730.968,326.983L731,327.274ZM143.242,327.256L143.238,327.288L143.242,327.256ZM730.898,326.345L730.918,326.526L730.848,325.898L730.898,326.345ZM730.685,324.485L730.8,325.474C730.762,325.143 730.724,324.814 730.685,324.485ZM730.575,323.563L730.639,324.095L730.561,323.444L730.575,323.563ZM730.462,322.638L730.502,322.967L730.432,322.401L730.462,322.638ZM730.346,321.713L730.37,321.907L730.299,321.348L730.346,321.713ZM730.227,320.789L730.236,320.861L730.15,320.212L730.227,320.789ZM729.98,318.945L730.051,319.468L729.97,318.87L729.98,318.945ZM729.852,318.024L729.898,318.35L729.826,317.84L729.852,318.024ZM729.722,317.103L729.75,317.302L729.68,316.811L729.722,317.103ZM729.589,316.184L729.601,316.266L729.529,315.781L729.589,316.184ZM729.314,314.348L729.378,314.771L729.309,314.318L729.314,314.348ZM729.172,313.432L729.219,313.737L729.151,313.3L729.172,313.432ZM729.028,312.516L729.059,312.711L728.991,312.289L729.028,312.516ZM728.88,311.601L728.894,311.688L728.832,311.307L728.88,311.601ZM728.422,308.863L728.465,309.115L728.408,308.782L728.422,308.863ZM728.263,307.952L728.295,308.132L728.234,307.787L728.263,307.952ZM728.102,307.042L728.117,307.127L728.064,306.831L728.102,307.042ZM727.602,304.318L727.628,304.458L727.596,304.286L727.602,304.318ZM727.429,303.412L727.458,303.561L727.408,303.304L727.429,303.412ZM727.254,302.507L727.269,302.582L727.226,302.365L727.254,302.507ZM726.526,298.896L726.546,298.991L726.515,298.843L726.526,298.896ZM726.338,297.996L726.349,298.051L726.32,297.915L726.338,297.996ZM725.554,294.403L725.556,294.411L725.554,294.403ZM725.347,293.484L725.358,293.533L725.347,293.484ZM153.516,275.772L153.48,275.892L153.499,275.83L153.516,275.772ZM153.761,274.944L153.743,275.003L153.757,274.957L153.761,274.944ZM154.071,273.911L153.998,274.151L154.018,274.086L154.071,273.911ZM154.331,273.054L154.228,273.393L154.281,273.215L154.331,273.054ZM154.456,272.645C191.549,151.739 304.138,63.738 437.12,63.738C550.263,63.738 648.644,127.441 698.328,220.916L697.816,219.956L154.769,271.632C154.664,271.97 154.559,272.308 154.456,272.645ZM701.578,227.211L701.625,227.306L701.548,227.151L701.578,227.211ZM701.175,226.411L701.218,226.497L701.104,226.27L701.175,226.411ZM700.771,225.612L700.786,225.643L700.675,225.426L700.771,225.612ZM699.954,224.019L700.126,224.353L699.936,223.984L699.954,224.019ZM699.542,223.225L699.708,223.545L699.46,223.066L699.542,223.225ZM699.128,222.431L699.254,222.673L698.962,222.116L699.128,222.431ZM698.712,221.64L698.793,221.795L698.376,221.007L698.712,221.64Z" style="fill:rgb(220,187,0);"/>
            </g>
            <g transform="matrix(0.771723,0,0,0.771723,57.274,73.6962)">
                <path d="M731.292,383.107C730.968,389.171 730.464,395.187 729.782,401.152C709.46,544.518 586.084,654.943 437.12,654.943C428.019,654.943 419.013,654.531 410.103,653.722C387.273,650.586 362.652,645.401 341.919,639.253C334.142,636.605 326.511,633.643 319.028,630.374C337.096,632.957 375.44,637.909 390.81,637.909C495.162,637.909 588.625,589.371 651.174,512.975C661.243,500.678 670.51,487.658 678.893,474.003C695.797,446.469 709.104,416.351 718.127,384.36L731.292,383.107Z" style="fill:rgb(148,125,0);"/>
            </g>
        </g>
        <g transform="matrix(0.576791,0.0429664,-0.0330074,0.443099,0.287152,18.9544)">
            <path d="M324.8,792.093C332.561,784.112 342.217,778.258 353.349,778.258C364.482,778.258 375.001,783.356 381.899,792.093C408.66,825.991 408.132,898.014 435.967,919.187C457.793,935.789 476.87,908.019 497.627,938.684C500.316,942.656 501.784,947.321 500.874,952.029C499.963,956.738 497.046,960.817 492.885,963.201C477.985,971.739 454.963,984.931 431.885,998.154C383.238,1026.03 323.461,1026.03 274.814,998.154C254.976,986.787 235.179,975.443 220.547,967.059C214.697,963.707 210.597,957.974 209.316,951.354C208.036,944.735 210.163,938.219 213.88,932.594C226.428,913.597 261.143,928.896 279.024,913.325C292.691,901.423 298.692,883.052 302.741,863.793C308.524,836.29 310.328,806.975 324.8,792.093Z" style="fill:rgb(209,135,16);"/>
        </g>
        <g transform="matrix(1,0,0,1,82.144,-554.189)">
            <circle cx="250.774" cy="887.455" r="42.495"/>
            <g transform="matrix(1,0,0,1,-136.608,-92.4799)">
                <circle cx="370.21" cy="967.509" r="13.472" style="fill:white;stroke:black;stroke-width:0.77px;"/>
            </g>
        </g>
    </g>
</svg>
