<?xml version="1.0" encoding="UTF-8" standalone="no"?>
<!DOCTYPE svg PUBLIC "-//W3C//DTD SVG 1.1//EN" "http://www.w3.org/Graphics/SVG/1.1/DTD/svg11.dtd">
<svg width="100%" height="100%" viewBox="0 0 1182 1182" version="1.1" xmlns="http://www.w3.org/2000/svg" xmlns:xlink="http://www.w3.org/1999/xlink" xml:space="preserve" xmlns:serif="http://www.serif.com/" style="fill-rule:evenodd;clip-rule:evenodd;stroke-linecap:round;stroke-linejoin:round;stroke-miterlimit:1.5;">
    <g id="Body" transform="matrix(1.2958,0,0,1.2958,-74.2157,-136.961)">
        <path d="M330.332,971.249C212.307,969.315 170.055,889.119 170.055,815.275C170.055,639.162 315.354,467.703 489.148,496.181C592.861,513.176 688.255,509.147 791.192,632.948C796.907,639.822 827.471,659.676 882.081,629.539C929.494,603.374 931.712,600.903 931.758,601.349C939.393,674.985 985.501,962.337 740.922,967.239C740.922,967.239 354.332,971.643 330.332,971.249Z" style="fill:rgb(245,239,44);"/>
        <path d="M330.332,971.249C163.72,969.099 170.055,815.275 170.055,815.275C170.055,815.275 160.618,967.682 549.55,955.942C936.614,944.257 891.416,817.446 916.503,718.978C918.411,711.487 842.673,760.734 843.597,759.922C889.605,719.512 931.724,601.278 931.724,601.278C931.724,601.278 943.155,673.074 939.332,759.396C934.236,874.454 889.583,964.04 740.922,967.239C740.922,967.239 354.334,971.559 330.332,971.249Z" style="fill:rgb(246,216,21);"/>
        <g transform="matrix(-0.490933,1.38808,1.91285,0.676532,-884.923,-300.29)">
            <path d="M296.771,935.014C301.171,932.214 305.571,928.514 309.971,923.914C314.371,919.314 318.371,914.314 321.971,908.914C325.571,903.514 328.571,897.914 330.971,892.114C333.371,886.314 334.571,880.814 334.571,875.614C334.571,870.014 333.971,865.014 332.771,860.614C331.571,856.214 330.371,852.014 329.171,848.014C327.971,844.014 326.771,840.214 325.571,836.614C324.371,833.014 323.771,829.214 323.771,825.214C323.771,816.414 326.771,809.414 332.771,804.214C338.771,799.014 345.771,796.414 353.771,796.414C364.171,796.414 371.571,799.814 375.971,806.614C380.371,813.414 382.571,823.214 382.571,836.014C382.571,848.814 380.271,860.314 375.671,870.514C371.071,880.714 364.971,890.014 357.371,898.414C349.771,906.814 341.271,914.514 331.871,921.514C322.471,928.514 312.971,935.214 303.371,941.614L296.771,935.014Z" style="fill:rgb(246,216,21);fill-rule:nonzero;"/>
        </g>
    </g>
    <g id="Head" transform="matrix(1.2958,0,0,1.2958,-74.2157,-95.4957)">
        <g id="Face">
            <g transform="matrix(1,0,0,1,-43.0495,-169.028)">
                <circle cx="437.659" cy="520.035" r="228.123" style="fill:rgb(245,239,44);"/>
            </g>
            <g transform="matrix(0.949904,0,0,0.981132,31.1967,10.9273)">
                <path d="M620.712,320.54C622.046,330.518 622.733,340.683 622.733,351.008C622.733,396.788 609.218,439.437 585.964,475.179C545.265,537.734 474.734,579.131 394.61,579.131C363.284,579.131 311.647,569.262 284.452,557.811C297.372,559.661 332.348,564.159 345.768,564.159C430.546,564.159 506.477,525.981 557.294,465.891C565.474,456.218 573.003,445.978 579.813,435.237C601.341,401.286 615.689,362.339 620.712,320.54Z" style="fill:rgb(246,216,21);"/>
            </g>
        </g>
        <g transform="matrix(1,0,0,1,82.144,-554.189)">
            <circle cx="250.774" cy="887.455" r="42.495"/>
            <g transform="matrix(1,0,0,1,-136.608,-92.4799)">
                <circle cx="370.21" cy="967.509" r="13.472" style="fill:white;stroke:black;stroke-width:0.77px;"/>
            </g>
        </g>
        <g transform="matrix(0.576791,0.0429664,-0.0330074,0.443099,0.287152,18.9544)">
            <path d="M324.8,792.093C332.561,784.112 342.217,778.258 353.349,778.258C364.482,778.258 375.001,783.356 381.899,792.093C408.66,825.991 408.132,898.014 435.967,919.187C457.793,935.789 476.87,908.019 497.627,938.684C500.316,942.656 501.784,947.321 500.874,952.029C499.963,956.738 497.046,960.817 492.885,963.201C477.985,971.739 454.963,984.931 431.885,998.154C383.238,1026.03 323.461,1026.03 274.814,998.154C254.976,986.787 235.179,975.443 220.547,967.059C214.697,963.707 210.597,957.974 209.316,951.354C208.036,944.735 210.163,938.219 213.88,932.594C226.428,913.597 261.143,928.896 279.024,913.325C292.691,901.423 298.692,883.052 302.741,863.793C308.524,836.29 310.328,806.975 324.8,792.093Z" style="fill:rgb(245,164,26);"/>
        </g>
    </g>
</svg>
