<?xml version="1.0" encoding="UTF-8" standalone="no"?>
<!DOCTYPE svg PUBLIC "-//W3C//DTD SVG 1.1//EN" "http://www.w3.org/Graphics/SVG/1.1/DTD/svg11.dtd">
<svg width="100%" height="100%" viewBox="0 0 2521 1067" version="1.1" xmlns="http://www.w3.org/2000/svg" xmlns:xlink="http://www.w3.org/1999/xlink" xml:space="preserve" xmlns:serif="http://www.serif.com/" style="fill-rule:evenodd;clip-rule:evenodd;stroke-linejoin:round;stroke-miterlimit:2;">
    <g transform="matrix(4.16667,0,0,4.16667,0,0)">
        <g id="OurDNA">
            <path d="M573.528,173.301L564.385,145.847C563.734,143.943 563.153,142.166 562.641,140.516C562.129,138.868 561.688,137.393 561.315,136.092C560.849,134.606 560.454,133.212 560.128,131.911L559.849,131.911C559.525,133.212 559.154,134.606 558.737,136.092C558.365,137.393 557.948,138.868 557.485,140.516C557.021,142.166 556.487,143.943 555.884,145.847L547.189,173.301L573.528,173.301ZM538.214,202.498C537.702,204.124 537.214,205.483 536.75,206.573C536.286,207.666 535.705,208.56 535.008,209.257C534.357,209.907 533.521,210.43 532.5,210.825C531.478,211.218 530.293,211.417 528.946,211.417C527.737,211.417 526.542,211.23 525.358,210.859C524.172,210.488 523.093,209.953 522.117,209.257C521.142,208.56 520.351,207.701 519.748,206.678C519.143,205.657 518.841,204.496 518.841,203.194C518.841,202.451 518.945,201.709 519.155,200.965C519.364,200.222 519.723,199.083 520.234,197.55L544.651,127.242C545.069,126.127 545.463,125.118 545.835,124.211C546.206,123.306 546.602,122.482 547.02,121.738C547.438,120.995 547.867,120.321 548.309,119.717C548.749,119.113 549.249,118.532 549.807,117.975C551.014,116.768 552.512,115.849 554.301,115.223C556.09,114.595 558.309,114.282 560.957,114.282C563.605,114.282 565.822,114.595 567.611,115.223C569.4,115.849 570.898,116.768 572.107,117.975C572.664,118.532 573.163,119.113 573.605,119.717C574.046,120.321 574.476,120.995 574.894,121.738C575.312,122.482 575.706,123.306 576.079,124.211C576.45,125.118 576.845,126.127 577.263,127.242L601.83,197.202C602.387,198.782 602.748,199.943 602.911,200.686C603.075,201.43 603.156,202.127 603.156,202.776C603.156,204.217 602.831,205.471 602.181,206.539C601.529,207.608 600.693,208.502 599.672,209.221C598.65,209.943 597.512,210.488 596.258,210.859C595.003,211.23 593.772,211.417 592.565,211.417C591.217,211.417 590.009,211.208 588.941,210.79C587.872,210.372 586.966,209.792 586.224,209.048C585.527,208.351 584.958,207.492 584.516,206.469C584.074,205.448 583.599,204.147 583.088,202.567L578.133,188.143L542.875,188.143L538.214,202.498Z" style="fill:white;fill-rule:nonzero;"/>
            <path d="M430.073,127.451C430.073,122.992 431.176,119.671 433.383,117.487C435.588,115.304 438.968,114.212 443.521,114.212C445.612,114.212 447.388,114.445 448.852,114.909C450.315,115.374 451.627,116.047 452.789,116.93C453.949,117.813 455.007,118.892 455.959,120.169C456.911,121.448 457.875,122.9 458.851,124.525L488.953,173.51C490.021,175.276 490.997,177.006 491.88,178.701C492.761,180.398 493.528,181.919 494.179,183.266C494.969,184.799 495.688,186.286 496.339,187.725L496.688,187.586C496.548,185.961 496.385,184.219 496.2,182.36C496.06,180.781 495.921,178.98 495.782,176.96C495.642,174.938 495.549,172.814 495.503,170.584L494.667,121.947C494.573,119.578 495.282,117.696 496.792,116.303C498.301,114.909 500.52,114.212 503.447,114.212C506.373,114.212 508.556,114.898 509.997,116.267C511.436,117.638 512.156,119.531 512.156,121.947L512.156,197.899C512.156,202.405 511.053,205.75 508.847,207.933C506.64,210.116 503.261,211.208 498.708,211.208C496.618,211.208 494.829,210.975 493.343,210.511C491.856,210.047 490.532,209.373 489.371,208.49C488.21,207.608 487.152,206.528 486.201,205.251C485.248,203.973 484.284,202.521 483.309,200.895L453.277,151.909C452.207,150.145 451.221,148.415 450.315,146.719C449.409,145.023 448.631,143.502 447.981,142.154C447.19,140.621 446.471,139.135 445.821,137.695L445.542,137.834C445.681,139.46 445.844,141.202 446.03,143.06C446.169,144.64 446.297,146.452 446.413,148.495C446.528,150.539 446.633,152.653 446.727,154.836L447.563,203.473C447.655,205.842 446.946,207.724 445.437,209.117C443.927,210.511 441.71,211.208 438.783,211.208C435.856,211.208 433.672,210.523 432.233,209.153C430.793,207.783 430.073,205.889 430.073,203.473L430.073,127.451Z" style="fill:white;fill-rule:nonzero;"/>
            <path d="M368.604,195.739C373.249,195.739 377.429,195.019 381.147,193.578C384.863,192.139 388.033,190.014 390.658,187.202C393.282,184.392 395.292,180.886 396.685,176.681C398.079,172.477 398.776,167.611 398.776,162.083C398.776,156.555 398.137,151.759 396.86,147.694C395.581,143.629 393.677,140.262 391.146,137.589C388.613,134.919 385.467,132.934 381.704,131.632C377.941,130.333 373.574,129.682 368.604,129.682L356.898,129.682L356.898,195.739L368.604,195.739ZM337.457,123.549C337.457,120.762 338.223,118.591 339.756,117.035C341.289,115.478 343.472,114.7 346.306,114.7L369.649,114.7C377.593,114.7 384.619,115.745 390.728,117.835C396.836,119.926 401.969,122.934 406.127,126.859C410.284,130.785 413.42,135.593 415.534,141.284C417.648,146.974 418.705,153.42 418.705,160.619C418.705,168.424 417.555,175.427 415.255,181.628C412.956,187.83 409.611,193.08 405.221,197.376C400.831,201.673 395.477,204.972 389.16,207.27C382.842,209.571 375.665,210.72 367.629,210.72L346.306,210.72C343.472,210.72 341.289,209.943 339.756,208.385C338.223,206.83 337.457,204.658 337.457,201.87L337.457,123.549Z" style="fill:white;fill-rule:nonzero;"/>
            <path d="M555.878,49.114C558.989,49.114 561.707,48.766 564.03,48.069C566.353,47.372 568.281,46.397 569.814,45.142C571.347,43.888 572.485,42.379 573.228,40.613C573.971,38.849 574.343,36.92 574.343,34.83C574.343,32.739 573.995,30.847 573.298,29.151C572.601,27.455 571.497,26.015 569.988,24.831C568.478,23.645 566.515,22.729 564.1,22.078C561.684,21.428 558.758,21.103 555.32,21.103L546.053,21.103L546.053,49.114L555.878,49.114ZM546.053,94.267C546.053,97.008 545.274,99.122 543.718,100.608C542.161,102.095 539.757,102.838 536.506,102.838C533.207,102.838 530.793,102.095 529.26,100.608C527.727,99.122 526.96,97.008 526.96,94.267L526.96,15.18C526.96,12.392 527.727,10.222 529.26,8.665C530.793,7.109 532.976,6.33 535.81,6.33L556.296,6.33C562.846,6.33 568.501,7.005 573.263,8.351C578.024,9.699 581.949,11.592 585.039,14.029C588.128,16.469 590.405,19.361 591.868,22.705C593.331,26.05 594.063,29.697 594.063,33.645C594.063,36.944 593.598,39.986 592.669,42.773C591.739,45.56 590.439,48.069 588.767,50.299C587.095,52.529 585.074,54.457 582.705,56.082C580.336,57.709 577.711,59.009 574.831,59.984L592.808,87.648C593.598,88.856 594.167,89.901 594.516,90.783C594.864,91.667 595.038,92.595 595.038,93.571C595.038,94.918 594.725,96.161 594.098,97.299C593.47,98.437 592.645,99.435 591.624,100.294C590.602,101.155 589.429,101.827 588.105,102.316C586.781,102.802 585.445,103.047 584.098,103.047C582.75,103.047 581.578,102.826 580.58,102.384C579.58,101.944 578.709,101.352 577.966,100.608C577.688,100.33 577.42,100.051 577.165,99.772C576.909,99.493 576.677,99.192 576.468,98.866C576.259,98.541 576.039,98.193 575.806,97.821C575.573,97.45 575.319,97.032 575.04,96.567L555.669,63.887L546.053,63.887L546.053,94.267Z" style="fill:white;fill-rule:nonzero;"/>
            <path d="M432.128,14.413C432.128,11.673 432.93,9.559 434.532,8.072C436.135,6.586 438.585,5.843 441.884,5.843C445.182,5.843 447.621,6.586 449.2,8.072C450.779,9.559 451.569,11.673 451.569,14.413L451.569,62.563C451.569,67.069 452.057,70.936 453.033,74.165C454.008,77.394 455.39,80.052 457.179,82.143C458.966,84.233 461.091,85.766 463.554,86.742C466.016,87.717 468.711,88.205 471.637,88.205C474.378,88.205 476.909,87.741 479.233,86.811C481.555,85.883 483.564,84.454 485.26,82.527C486.955,80.599 488.279,78.171 489.232,75.244C490.183,72.318 490.66,68.834 490.66,64.792L490.66,14.413C490.66,11.673 491.45,9.559 493.029,8.072C494.608,6.586 497.047,5.843 500.346,5.843C503.644,5.843 506.095,6.586 507.697,8.072C509.3,9.559 510.101,11.673 510.101,14.413L510.101,62.841C510.101,69.624 509.206,75.57 507.418,80.68C505.63,85.79 503.052,90.052 499.684,93.465C496.315,96.881 492.181,99.447 487.281,101.165C482.379,102.884 476.817,103.743 470.592,103.743C464.321,103.743 458.792,102.918 454.008,101.269C449.223,99.622 445.217,97.183 441.988,93.954C438.759,90.725 436.309,86.696 434.637,81.864C432.965,77.034 432.128,71.436 432.128,65.071L432.128,14.413Z" style="fill:white;fill-rule:nonzero;"/>
            <path d="M375.345,84.94C358.695,84.94 345.198,71.443 345.198,54.793C345.198,38.144 358.695,24.647 375.345,24.647C391.994,24.647 405.492,38.144 405.492,54.793C405.492,71.443 391.994,84.94 375.345,84.94ZM375.345,5.843C348.31,5.843 326.394,27.759 326.394,54.793C326.394,81.828 348.31,103.743 375.345,103.743C402.38,103.743 424.296,81.828 424.296,54.793C424.296,27.759 402.38,5.843 375.345,5.843Z" style="fill:white;fill-rule:nonzero;"/>
        </g>
        <path d="M302.215,36.053C302.215,52.737 288.689,66.263 272.004,66.263C255.32,66.263 241.794,52.737 241.794,36.053C241.794,19.368 255.32,5.843 272.004,5.843C288.689,5.843 302.215,19.368 302.215,36.053Z" style="fill:white;fill-rule:nonzero;"/>
        <path d="M226.668,36.053C226.668,52.737 213.142,66.263 196.458,66.263C179.773,66.263 166.247,52.737 166.247,36.053C166.247,19.368 179.773,5.843 196.458,5.843C213.142,5.843 226.668,19.368 226.668,36.053Z" style="fill:white;fill-rule:nonzero;"/>
        <path d="M151.121,36.053C151.121,52.737 137.595,66.263 120.911,66.263C104.226,66.263 90.7,52.737 90.7,36.053C90.7,19.368 104.226,5.843 120.911,5.843C137.595,5.843 151.121,19.368 151.121,36.053Z" style="fill:white;fill-rule:nonzero;"/>
        <path d="M75.732,36.053C75.732,52.737 62.207,66.263 45.522,66.263C28.838,66.263 15.312,52.737 15.312,36.053C15.312,19.368 28.838,5.843 45.522,5.843C62.207,5.843 75.732,19.368 75.732,36.053Z" style="fill:white;fill-rule:nonzero;"/>
        <path d="M288.346,141.206C289.312,141.206 290.096,141.99 290.096,142.956L290.096,198.514C290.096,199.48 289.312,200.264 288.346,200.264C287.379,200.264 286.596,199.48 286.596,198.514L286.596,142.956C286.596,141.99 287.379,141.206 288.346,141.206Z" style="fill:white;"/>
        <path d="M271.969,134.148C272.936,134.148 273.719,134.931 273.719,135.898L273.719,198.514C273.719,199.48 272.936,200.264 271.969,200.264C271.002,200.264 270.219,199.48 270.219,198.514L270.219,135.898C270.219,134.931 271.002,134.148 271.969,134.148Z" style="fill:white;"/>
        <path d="M255.593,141.206C256.56,141.206 257.342,141.99 257.342,142.956L257.342,198.514C257.342,199.48 256.56,200.264 255.593,200.264C254.626,200.264 253.843,199.48 253.843,198.514L253.843,142.956C253.843,141.99 254.626,141.206 255.593,141.206Z" style="fill:white;"/>
        <path d="M179.922,155.982C178.955,155.982 178.172,155.198 178.172,154.232L178.172,98.675C178.172,97.708 178.955,96.925 179.922,96.925C180.889,96.925 181.672,97.708 181.672,98.675L181.672,154.232C181.672,155.198 180.889,155.982 179.922,155.982Z" style="fill:white;fill-rule:nonzero;"/>
        <path d="M196.299,163.04C195.332,163.04 194.549,162.257 194.549,161.29L194.549,98.675C194.549,97.708 195.332,96.925 196.299,96.925C197.266,96.925 198.049,97.708 198.049,98.675L198.049,161.29C198.049,162.257 197.266,163.04 196.299,163.04Z" style="fill:white;fill-rule:nonzero;"/>
        <path d="M212.675,155.982C211.708,155.982 210.925,155.198 210.925,154.232L210.925,98.675C210.925,97.708 211.708,96.925 212.675,96.925C213.642,96.925 214.425,97.708 214.425,98.675L214.425,154.232C214.425,155.198 213.642,155.982 212.675,155.982Z" style="fill:white;fill-rule:nonzero;"/>
        <path d="M137.004,141.206C137.971,141.206 138.754,141.99 138.754,142.956L138.754,198.514C138.754,199.48 137.971,200.264 137.004,200.264C136.038,200.264 135.254,199.48 135.254,198.514L135.254,142.956C135.254,141.99 136.038,141.206 137.004,141.206Z" style="fill:white;fill-rule:nonzero;"/>
        <path d="M120.627,134.148C121.594,134.148 122.377,134.931 122.377,135.898L122.377,198.514C122.377,199.48 121.594,200.264 120.627,200.264C119.661,200.264 118.877,199.48 118.877,198.514L118.877,135.898C118.877,134.931 119.661,134.148 120.627,134.148Z" style="fill:white;fill-rule:nonzero;"/>
        <path d="M104.251,141.206C105.218,141.206 106.001,141.99 106.001,142.956L106.001,198.514C106.001,199.48 105.218,200.264 104.251,200.264C103.285,200.264 102.501,199.48 102.501,198.514L102.501,142.956C102.501,141.99 103.285,141.206 104.251,141.206Z" style="fill:white;fill-rule:nonzero;"/>
        <path d="M28.863,156.005C27.896,156.005 27.113,155.222 27.113,154.255L27.113,98.698C27.113,97.732 27.896,96.948 28.863,96.948C29.83,96.948 30.613,97.732 30.613,98.698L30.613,154.255C30.613,155.222 29.83,156.005 28.863,156.005Z" style="fill:white;fill-rule:nonzero;"/>
        <path d="M45.24,163.064C44.273,163.064 43.49,162.28 43.49,161.314L43.49,98.698C43.49,97.732 44.273,96.948 45.24,96.948C46.207,96.948 46.99,97.732 46.99,98.698L46.99,161.314C46.99,162.28 46.207,163.064 45.24,163.064Z" style="fill:white;fill-rule:nonzero;"/>
        <path d="M61.616,156.005C60.649,156.005 59.866,155.222 59.866,154.255L59.866,98.698C59.866,97.732 60.649,96.948 61.616,96.948C62.583,96.948 63.366,97.732 63.366,98.698L63.366,154.255C63.366,155.222 62.583,156.005 61.616,156.005Z" style="fill:white;fill-rule:nonzero;"/>
        <path d="M227.666,165.99C227.666,166.502 240.734,167.964 240.731,167.907L240.731,130.415C240.819,130.413 228.067,128.352 227.666,128.496L227.666,165.99Z" style="fill:white;"/>
        <path d="M316.277,130.415C316.277,129.512 316.242,128.616 316.188,127.726C316.182,127.649 316.179,127.57 316.17,127.493C314.66,104.439 295.434,86.141 272.004,86.141C258.272,86.141 245.979,92.426 237.852,102.27C240.757,106.283 243.003,110.799 244.437,115.662C249.716,105.837 260.091,99.141 272.004,99.141C288.604,99.141 302.218,112.143 303.213,128.496L303.213,165.99C303.213,183.234 289.184,197.263 271.94,197.263C255.34,197.263 241.725,184.261 240.731,167.907L227.666,165.99C227.666,166.893 227.702,167.788 227.755,168.677C227.761,168.755 227.765,168.834 227.773,168.911C229.284,191.965 248.51,210.263 271.94,210.263C295.012,210.263 314.009,192.519 316.026,169.962C316.186,169.397 316.277,168.804 316.277,168.187L316.277,130.415Z" style="fill:white;"/>
        <path d="M227.666,128.496L240.731,130.415C240.731,129.512 240.695,128.616 240.641,127.726C240.636,127.649 240.632,127.57 240.624,127.493C239.113,104.439 219.887,86.141 196.457,86.141C182.73,86.141 170.442,92.421 162.315,102.259C165.155,106.52 167.271,111.301 168.5,116.424C173.644,106.186 184.24,99.141 196.457,99.141C213.057,99.141 226.671,112.143 227.666,128.496Z" style="fill:white;"/>
        <path id="Curve2" d="M196.457,210.263C173.264,210.263 154.191,192.332 152.344,169.606C152.242,169.149 152.184,165.99 152.184,165.99L152.184,130.415C152.184,114.313 139.952,101.019 124.293,99.327C123.181,99.207 122.054,99.141 120.91,99.141C115.827,99.141 111.033,100.375 106.787,102.538C100.836,105.569 95.97,110.439 92.967,116.41C92.968,116.415 92.969,116.419 92.97,116.424L92.965,116.413C92.966,116.412 92.966,116.411 92.967,116.41C90.964,108.168 86.801,102.282 86.786,102.261L86.785,102.259L86.786,102.261C91.986,95.965 98.893,91.136 106.787,88.467C111.225,86.966 115.971,86.141 120.91,86.141C122.05,86.141 123.175,86.197 124.293,86.281C145.932,87.926 163.267,105.188 165.024,126.798C165.126,127.255 165.184,127.729 165.184,128.217L165.184,165.99C165.184,183.234 179.213,197.263 196.457,197.263C208.76,197.263 219.422,190.12 224.525,179.765C225.551,185.081 227.527,190.061 230.276,194.519C222.148,204.138 210.007,210.263 196.457,210.263Z" style="fill:white;"/>
        <g id="Curve1">
            <path id="Curve1-transition" d="M76.955,169.606C78.803,192.332 89.795,183.234 89.795,165.99L89.795,128.217C89.795,127.729 89.737,127.255 89.635,126.798C87.788,104.072 76.795,113.17 76.795,130.415L76.795,165.99C76.795,165.99 76.853,169.149 76.955,169.606Z" style="fill:white;"/>
            <path id="Curve1-b" d="M149.137,179.765C144.034,190.12 133.372,197.263 121.069,197.263C103.825,197.263 89.795,183.234 89.795,165.99L76.795,165.99C76.795,165.99 76.853,169.149 76.955,169.606C78.803,192.332 97.875,210.263 121.069,210.263C134.619,210.263 146.76,204.138 154.888,194.519C152.139,190.061 150.163,185.081 149.137,179.765Z" style="fill:white;"/>
            <path id="Curve1-a" d="M76.795,130.415L89.795,130.415L89.795,128.217C89.795,127.729 89.737,127.255 89.635,126.798C87.788,104.072 68.715,86.141 45.522,86.141C22.092,86.141 2.866,104.439 1.356,127.493C1.348,127.57 1.344,127.649 1.339,127.726C1.285,128.616 1.249,129.512 1.249,130.415C1.249,130.415 1.341,169.397 1.501,169.962C3.518,192.519 22.515,210.263 45.587,210.263C59.293,210.263 71.563,204.002 79.691,194.19C76.892,189.789 74.843,184.868 73.739,179.601C68.669,190.045 57.956,197.263 45.587,197.263C28.343,197.263 14.314,183.234 14.314,165.99L14.314,128.496C15.309,112.143 28.922,99.141 45.522,99.141C62.766,99.141 76.795,113.17 76.795,130.415Z" style="fill:white;"/>
        </g>
        <g id="Bottom-text" serif:id="Bottom text">
            <path d="M17.05,249.113L12.837,236.704L8.623,249.113L17.05,249.113ZM13.68,234.613L21.002,255.65L19.288,255.65L17.573,250.595L8.101,250.595L6.386,255.65L4.672,255.65L11.965,234.613L13.68,234.613Z" style="fill:white;fill-rule:nonzero;"/>
            <path d="M25.074,247.136L25.074,234.613L26.643,234.613L26.643,247.136C26.643,252.367 28.27,254.401 32.018,254.401C35.738,254.401 37.365,252.367 37.365,247.136L37.365,234.613L38.934,234.613L38.934,247.136C38.934,253.093 36.668,255.941 32.018,255.941C27.34,255.941 25.074,253.093 25.074,247.136Z" style="fill:white;fill-rule:nonzero;"/>
            <path d="M43.849,251.147L45.331,250.652C46.232,253.122 48.47,254.488 51.201,254.488C54.136,254.488 56.141,252.832 56.141,250.304C56.141,247.427 53.845,246.643 50.91,245.683C47.481,244.579 44.576,243.301 44.576,239.611C44.576,236.53 47.133,234.322 50.591,234.322C53.932,234.322 56.344,235.891 57.419,238.826L55.995,239.291C55.066,236.908 53.206,235.804 50.591,235.746C47.946,235.746 46.145,237.286 46.145,239.611C46.145,242.458 48.411,243.33 51.288,244.26C54.688,245.335 57.681,246.526 57.681,250.333C57.681,253.645 55.037,255.941 51.201,255.941C47.714,255.941 44.924,254.169 43.849,251.147Z" style="fill:white;fill-rule:nonzero;"/>
            <path d="M66.344,236.152L61.113,236.152L61.113,234.613L73.085,234.613L73.085,236.152L67.913,236.152L67.913,255.65L66.344,255.65L66.344,236.152Z" style="fill:white;fill-rule:nonzero;"/>
            <path d="M83.229,246.236C87.21,246.236 89.564,245.509 89.564,241.179C89.564,236.938 87.268,236.124 83.229,236.124L80.033,236.124L80.033,246.236L83.229,246.236ZM78.464,234.613L83.2,234.613C88.198,234.613 91.133,236.008 91.133,241.151C91.133,245.131 89.331,246.875 86.251,247.486L91.308,255.65L89.419,255.65L84.595,247.688C84.159,247.718 83.694,247.718 83.2,247.718L80.033,247.718L80.033,255.65L78.464,255.65L78.464,234.613Z" style="fill:white;fill-rule:nonzero;"/>
            <path d="M106.596,249.113L102.383,236.704L98.169,249.113L106.596,249.113ZM103.225,234.613L110.548,255.65L108.833,255.65L107.119,250.595L97.646,250.595L95.931,255.65L94.217,255.65L101.511,234.613L103.225,234.613Z" style="fill:white;fill-rule:nonzero;"/>
            <path d="M115.317,234.613L116.886,234.613L116.886,254.11L125.226,254.11L125.226,255.65L115.317,255.65L115.317,234.613Z" style="fill:white;fill-rule:nonzero;"/>
            <rect x="130.575" y="234.613" width="1.569" height="21.037" style="fill:white;fill-rule:nonzero;"/>
            <path d="M149.058,249.113L144.844,236.704L140.631,249.113L149.058,249.113ZM145.687,234.613L153.01,255.65L151.295,255.65L149.581,250.595L140.107,250.595L138.393,255.65L136.679,255.65L143.972,234.613L145.687,234.613Z" style="fill:white;fill-rule:nonzero;"/>
            <path d="M157.778,234.613L159.464,234.613L170.07,252.832L170.07,234.613L171.639,234.613L171.639,255.65L170.041,255.65L159.348,237.286L159.348,255.65L157.778,255.65L157.778,234.613Z" style="fill:white;fill-rule:nonzero;"/>
            <path d="M187.22,245.073C187.22,238.681 190.445,234.293 195.211,234.293C198.407,234.293 200.761,235.92 202.039,238.913L200.644,239.494C199.395,236.938 197.68,235.804 195.24,235.804C191.375,235.804 188.789,239.494 188.789,245.073C188.789,250.797 191.259,254.371 195.152,254.371C199.046,254.371 201.371,251.379 201.487,246.148L195.095,246.148L195.095,244.638L203.085,244.638L203.085,245.8C203.085,252.047 200.063,255.883 195.123,255.883C190.3,255.883 187.22,251.64 187.22,245.073Z" style="fill:white;fill-rule:nonzero;"/>
            <path d="M208.959,234.613L219.972,234.613L219.972,236.152L210.528,236.152L210.528,244.173L219.566,244.173L219.566,245.655L210.528,245.655L210.528,254.11L219.972,254.11L219.972,255.65L208.959,255.65L208.959,234.613Z" style="fill:white;fill-rule:nonzero;"/>
            <path d="M225.787,234.613L227.473,234.613L238.079,252.832L238.079,234.613L239.648,234.613L239.648,255.65L238.049,255.65L227.356,237.286L227.356,255.65L225.787,255.65L225.787,234.613Z" style="fill:white;fill-rule:nonzero;"/>
            <path d="M246.16,234.613L257.173,234.613L257.173,236.152L247.729,236.152L247.729,244.173L256.765,244.173L256.765,245.655L247.729,245.655L247.729,254.11L257.173,254.11L257.173,255.65L246.16,255.65L246.16,234.613Z" style="fill:white;fill-rule:nonzero;"/>
            <path d="M267.056,236.152L261.825,236.152L261.825,234.613L273.797,234.613L273.797,236.152L268.625,236.152L268.625,255.65L267.056,255.65L267.056,236.152Z" style="fill:white;fill-rule:nonzero;"/>
            <rect x="279.177" y="234.613" width="1.568" height="21.037" style="fill:white;fill-rule:nonzero;"/>
            <path d="M294.521,256C290.307,256 286.617,252.628 286.617,245.19C286.617,237.925 290.336,234.351 294.521,234.351C297.63,234.351 300.71,236.269 301.843,240.947L300.332,241.325C299.46,237.867 297.368,235.891 294.521,235.891C290.685,235.891 288.186,239.552 288.186,245.19C288.186,250.914 290.627,254.459 294.521,254.459C297.397,254.459 299.518,252.396 300.332,248.851L301.872,249.141C300.797,254.023 297.659,256 294.521,256Z" style="fill:white;fill-rule:nonzero;"/>
            <path d="M321.143,254.11C326.955,254.11 329.454,251.466 329.454,245.103C329.454,238.768 326.984,236.152 321.143,236.152L318.847,236.152L318.847,254.11L321.143,254.11ZM317.278,234.613L321.143,234.613C328.088,234.613 331.023,237.751 331.023,245.103C331.023,252.454 328.059,255.65 321.143,255.65L317.278,255.65L317.278,234.613Z" style="fill:white;fill-rule:nonzero;"/>
            <rect x="336.867" y="234.613" width="1.57" height="21.037" style="fill:white;fill-rule:nonzero;"/>
            <path d="M342.971,234.613L344.686,234.613L351.137,253.558L357.587,234.613L359.302,234.613L351.98,255.65L350.265,255.65L342.971,234.613Z" style="fill:white;fill-rule:nonzero;"/>
            <path d="M363.839,234.613L374.851,234.613L374.851,236.152L365.407,236.152L365.407,244.173L374.445,244.173L374.445,245.655L365.407,245.655L365.407,254.11L374.851,254.11L374.851,255.65L363.839,255.65L363.839,234.613Z" style="fill:white;fill-rule:nonzero;"/>
            <path d="M385.432,246.236C389.413,246.236 391.766,245.509 391.766,241.179C391.766,236.938 389.471,236.124 385.432,236.124L382.235,236.124L382.235,246.236L385.432,246.236ZM380.666,234.613L385.403,234.613C390.4,234.613 393.335,236.008 393.335,241.151C393.335,245.131 391.534,246.875 388.454,247.486L393.51,255.65L391.621,255.65L386.797,247.688C386.362,247.718 385.897,247.718 385.403,247.718L382.235,247.718L382.235,255.65L380.666,255.65L380.666,234.613Z" style="fill:white;fill-rule:nonzero;"/>
            <path d="M397.872,251.147L399.354,250.652C400.255,253.122 402.492,254.488 405.224,254.488C408.158,254.488 410.164,252.832 410.164,250.304C410.164,247.427 407.868,246.643 404.933,245.683C401.504,244.579 398.599,243.301 398.599,239.611C398.599,236.53 401.156,234.322 404.614,234.322C407.955,234.322 410.367,235.891 411.442,238.826L410.018,239.291C409.088,236.908 407.229,235.804 404.614,235.746C401.969,235.746 400.168,237.286 400.168,239.611C400.168,242.458 402.434,243.33 405.311,244.26C408.71,245.335 411.704,246.526 411.704,250.333C411.704,253.645 409.06,255.941 405.224,255.941C401.737,255.941 398.947,254.169 397.872,251.147Z" style="fill:white;fill-rule:nonzero;"/>
            <rect x="417.083" y="234.613" width="1.568" height="21.037" style="fill:white;fill-rule:nonzero;"/>
            <path d="M429.231,236.152L424,236.152L424,234.613L435.972,234.613L435.972,236.152L430.799,236.152L430.799,255.65L429.231,255.65L429.231,236.152Z" style="fill:white;fill-rule:nonzero;"/>
            <path d="M446.552,249.548L439.375,234.613L441.147,234.613L447.336,247.718L453.613,234.613L455.415,234.613L448.121,249.548L448.121,255.65L446.552,255.65L446.552,249.548Z" style="fill:white;fill-rule:nonzero;"/>
            <path d="M473.523,254.11C479.335,254.11 481.834,251.466 481.834,245.103C481.834,238.768 479.364,236.152 473.523,236.152L471.228,236.152L471.228,254.11L473.523,254.11ZM469.659,234.613L473.523,234.613C480.468,234.613 483.403,237.751 483.403,245.103C483.403,252.454 480.439,255.65 473.523,255.65L469.659,255.65L469.659,234.613Z" style="fill:white;fill-rule:nonzero;"/>
            <path d="M498.662,249.113L494.449,236.704L490.235,249.113L498.662,249.113ZM495.291,234.613L502.614,255.65L500.9,255.65L499.185,250.595L489.712,250.595L487.998,255.65L486.284,255.65L493.577,234.613L495.291,234.613Z" style="fill:white;fill-rule:nonzero;"/>
            <path d="M509.01,236.152L503.78,236.152L503.78,234.613L515.75,234.613L515.75,236.152L510.579,236.152L510.579,255.65L509.01,255.65L509.01,236.152Z" style="fill:white;fill-rule:nonzero;"/>
            <path d="M529.091,249.113L524.878,236.704L520.664,249.113L529.091,249.113ZM525.721,234.613L533.043,255.65L531.329,255.65L529.615,250.595L520.142,250.595L518.427,255.65L516.713,255.65L524.005,234.613L525.721,234.613Z" style="fill:white;fill-rule:nonzero;"/>
            <path d="M542.956,254.14C547.373,254.14 549.116,252.919 549.116,249.956C549.116,246.671 547.605,245.626 543.043,245.626L539.381,245.626L539.381,254.14L542.956,254.14ZM542.84,244.143C546.849,244.143 548.535,242.923 548.535,239.901C548.535,236.966 547.198,236.124 542.723,236.124L539.381,236.124L539.381,244.143L542.84,244.143ZM537.812,234.613L542.752,234.613C548.332,234.613 550.133,236.037 550.133,239.814C550.133,242.691 548.912,244.231 546.181,244.812C549.436,245.218 550.714,246.701 550.714,249.926C550.714,253.849 548.535,255.65 542.956,255.65L537.812,255.65L537.812,234.613Z" style="fill:white;fill-rule:nonzero;"/>
            <path d="M566.641,249.113L562.428,236.704L558.214,249.113L566.641,249.113ZM563.27,234.613L570.593,255.65L568.878,255.65L567.164,250.595L557.691,250.595L555.977,255.65L554.262,255.65L561.556,234.613L563.27,234.613Z" style="fill:white;fill-rule:nonzero;"/>
            <path d="M573.996,251.147L575.478,250.652C576.379,253.122 578.616,254.488 581.348,254.488C584.282,254.488 586.288,252.832 586.288,250.304C586.288,247.427 583.992,246.643 581.057,245.683C577.629,244.579 574.722,243.301 574.722,239.611C574.722,236.53 577.279,234.322 580.738,234.322C584.079,234.322 586.491,235.891 587.566,238.826L586.142,239.291C585.212,236.908 583.353,235.804 580.738,235.746C578.094,235.746 576.292,237.286 576.292,239.611C576.292,242.458 578.558,243.33 581.435,244.26C584.835,245.335 587.828,246.526 587.828,250.333C587.828,253.645 585.183,255.941 581.348,255.941C577.861,255.941 575.071,254.169 573.996,251.147Z" style="fill:white;fill-rule:nonzero;"/>
            <path d="M593.207,234.613L604.22,234.613L604.22,236.152L594.776,236.152L594.776,244.173L603.813,244.173L603.813,245.655L594.776,245.655L594.776,254.11L604.22,254.11L604.22,255.65L593.207,255.65L593.207,234.613Z" style="fill:white;fill-rule:nonzero;"/>
        </g>
    </g>
</svg>
